Coordinates
version=1
nRows=11
nColumns=4
inDegrees=yes

Units are S.I. units (second, meters, Newtons, ...)
Angles are in degrees.

endheader
time	joint_1	joint_2	transX
      0.00000000	     88.70918671	     24.98321055	      0.00000000
      0.01000000	     87.29615345	     21.72277921	      0.00000000
      0.02000000	     87.12104046	     14.54403325	      0.00000000
      0.03000000	     91.31349154	     -5.03681341	      0.00000000
      0.04000000	     98.16528290	    -33.01541812	      0.00000000
      0.05000000	    100.38122430	    -49.65333946	      0.00000000
      0.06000000	    100.36509179	    -60.71705793	      0.00000000
      0.07000000	     99.17344189	    -68.64692173	      0.00000000
      0.08000000	     97.26607309	    -74.41302893	      0.00000000
      0.09000000	     94.89260344	    -78.52330145	      0.00000000
      0.10000000	     92.20480201	    -81.30556405	      0.00000000
